<svg width="30" height="30" viewBox="0 0 30 30" fill="none" xmlns="http://www.w3.org/2000/svg">
<path d="M14.9997 26.2501C14.8352 26.2511 14.6721 26.2196 14.5198 26.1574C14.3675 26.0952 14.229 26.0035 14.1122 25.8876L4.39972 16.1626C3.18142 14.9316 2.49805 13.2696 2.49805 11.5376C2.49805 9.80568 3.18142 8.14367 4.39972 6.91264C5.62755 5.68828 7.29076 5.00073 9.02472 5.00073C10.7587 5.00073 12.4219 5.68828 13.6497 6.91264L14.9997 8.26264L16.3497 6.91264C17.5775 5.68828 19.2408 5.00073 20.9747 5.00073C22.7087 5.00073 24.3719 5.68828 25.5997 6.91264C26.818 8.14367 27.5014 9.80568 27.5014 11.5376C27.5014 13.2696 26.818 14.9316 25.5997 16.1626L15.8872 25.8876C15.7704 26.0035 15.6319 26.0952 15.4796 26.1574C15.3273 26.2196 15.1642 26.2511 14.9997 26.2501Z" fill="#00FFFF"/>
</svg>
