<svg width="30" height="30" viewBox="0 0 30 30" fill="none" xmlns="http://www.w3.org/2000/svg">
<path d="M14.5229 2.5C11.2551 2.56571 8.14585 3.96722 5.87706 6.39719C3.60827 8.82716 2.36512 12.0872 2.42021 15.4625V21.25C2.42021 22.2389 2.70414 23.2056 3.23608 24.0279C3.76803 24.8501 4.5241 25.491 5.40869 25.8694C6.29328 26.2478 7.26666 26.3469 8.20573 26.1539C9.14481 25.961 10.0074 25.4848 10.6844 24.7855C11.3615 24.0863 11.8225 23.1954 12.0093 22.2255C12.1961 21.2555 12.1003 20.2502 11.7339 19.3366C11.3674 18.423 10.747 17.6421 9.95084 17.0927C9.15473 16.5432 8.21876 16.25 7.26129 16.25C6.4081 16.2537 5.57174 16.4956 4.84075 16.95V15.4625C4.78553 12.7502 5.77363 10.1259 7.58851 8.16479C9.40339 6.20363 11.897 5.06557 14.5229 5C17.1488 5.06557 19.6424 6.20363 21.4573 8.16479C23.2722 10.1259 24.2603 12.7502 24.205 15.4625V16.95C23.4741 16.4956 22.6377 16.2537 21.7845 16.25C20.827 16.25 19.8911 16.5432 19.095 17.0927C18.2988 17.6421 17.6783 18.423 17.3119 19.3366C16.9455 20.2502 16.8497 21.2555 17.0365 22.2255C17.2232 23.1954 17.6843 24.0863 18.3614 24.7855C19.0384 25.4848 19.901 25.961 20.8401 26.1539C21.7791 26.3469 22.7525 26.2478 23.6371 25.8694C24.5217 25.491 25.2778 24.8501 25.8097 24.0279C26.3417 23.2056 26.6256 22.2389 26.6256 21.25V15.4625C26.6807 12.0872 25.4375 8.82716 23.1687 6.39719C20.8999 3.96722 17.7907 2.56571 14.5229 2.5V2.5Z" fill="#00FFFF"/>
<line y1="-1.5" x2="37.3527" y2="-1.5" transform="matrix(-0.723766 0.690046 -0.666392 -0.745602 27.2915 0)" stroke="#00FFFF" stroke-width="3"/>
<line y1="-1.5" x2="37.302" y2="-1.5" transform="matrix(-0.752334 -0.658782 0.634482 -0.772938 30 25.574)" stroke="#00FFFF" stroke-width="3"/>
</svg>
