<svg width="30" height="30" viewBox="0 0 30 30" fill="none" xmlns="http://www.w3.org/2000/svg">
<path d="M14.9999 2.5C11.6248 2.56571 8.41346 3.96722 6.07019 6.39719C3.72692 8.82716 2.44296 12.0872 2.49986 15.4625V21.25C2.49986 22.2389 2.79311 23.2056 3.34251 24.0279C3.89192 24.8501 4.67281 25.491 5.58644 25.8694C6.50007 26.2478 7.50541 26.3469 8.47531 26.1539C9.44522 25.961 10.3361 25.4848 11.0354 24.7855C11.7347 24.0863 12.2109 23.1954 12.4038 22.2255C12.5967 21.2555 12.4977 20.2502 12.1193 19.3366C11.7408 18.423 11.1 17.6421 10.2777 17.0927C9.45547 16.5432 8.48877 16.25 7.49986 16.25C6.61866 16.2537 5.75485 16.4956 4.99986 16.95V15.4625C4.94283 12.7502 5.96336 10.1259 7.83782 8.16479C9.71229 6.20363 12.2878 5.06557 14.9999 5C17.7119 5.06557 20.2874 6.20363 22.1619 8.16479C24.0364 10.1259 25.0569 12.7502 24.9999 15.4625V16.95C24.2449 16.4956 23.3811 16.2537 22.4999 16.25C21.511 16.25 20.5443 16.5432 19.722 17.0927C18.8998 17.6421 18.2589 18.423 17.8805 19.3366C17.502 20.2502 17.403 21.2555 17.5959 22.2255C17.7889 23.1954 18.2651 24.0863 18.9643 24.7855C19.6636 25.4848 20.5545 25.961 21.5244 26.1539C22.4943 26.3469 23.4996 26.2478 24.4133 25.8694C25.3269 25.491 26.1078 24.8501 26.6572 24.0279C27.2066 23.2056 27.4999 22.2389 27.4999 21.25V15.4625C27.5568 12.0872 26.2728 8.82716 23.9295 6.39719C21.5863 3.96722 18.375 2.56571 14.9999 2.5V2.5Z" fill="#00FFFF"/>
</svg>
